<svg width="111" height="103" viewBox="0 0 111 103" fill="none" xmlns="http://www.w3.org/2000/svg">
<rect x="25.2626" y="0.570312" width="2.88846" height="102.334" rx="1.44423" fill="#212A32"/>
<rect x="25.2626" y="0.570312" width="2.88846" height="102.334" rx="1.44423" fill="url(#paint0_linear_816_4479)" fill-opacity="0.3"/>
<rect x="31.0396" y="0.570312" width="2.88846" height="102.334" rx="1.44423" fill="#212A32"/>
<rect x="31.0396" y="0.570312" width="2.88846" height="102.334" rx="1.44423" fill="url(#paint1_linear_816_4479)" fill-opacity="0.3"/>
<rect x="36.8166" y="0.570312" width="2.88846" height="102.334" rx="1.44423" fill="#212A32"/>
<rect x="36.8166" y="0.570312" width="2.88846" height="102.334" rx="1.44423" fill="url(#paint2_linear_816_4479)" fill-opacity="0.3"/>
<rect x="42.5944" y="0.570312" width="2.88846" height="102.334" rx="1.44423" fill="#212A32"/>
<rect x="42.5944" y="0.570312" width="2.88846" height="102.334" rx="1.44423" fill="url(#paint3_linear_816_4479)" fill-opacity="0.3"/>
<rect x="48.3704" y="0.570312" width="2.88846" height="102.334" rx="1.44423" fill="#212A32"/>
<rect x="48.3704" y="0.570312" width="2.88846" height="102.334" rx="1.44423" fill="url(#paint4_linear_816_4479)" fill-opacity="0.3"/>
<rect x="54.1483" y="0.570312" width="2.88846" height="102.334" rx="1.44423" fill="#212A32"/>
<rect x="54.1483" y="0.570312" width="2.88846" height="102.334" rx="1.44423" fill="url(#paint5_linear_816_4479)" fill-opacity="0.3"/>
<rect x="59.9242" y="0.570312" width="2.88846" height="102.334" rx="1.44423" fill="#212A32"/>
<rect x="59.9242" y="0.570312" width="2.88846" height="102.334" rx="1.44423" fill="url(#paint6_linear_816_4479)" fill-opacity="0.3"/>
<rect x="65.7012" y="0.570312" width="2.88846" height="102.334" rx="1.44423" fill="#212A32"/>
<rect x="65.7012" y="0.570312" width="2.88846" height="102.334" rx="1.44423" fill="url(#paint7_linear_816_4479)" fill-opacity="0.3"/>
<rect x="71.4781" y="0.570312" width="2.88846" height="102.334" rx="1.44423" fill="#212A32"/>
<rect x="71.4781" y="0.570312" width="2.88846" height="102.334" rx="1.44423" fill="url(#paint8_linear_816_4479)" fill-opacity="0.3"/>
<rect x="77.255" y="0.570312" width="2.88846" height="102.334" rx="1.44423" fill="#212A32"/>
<rect x="77.255" y="0.570312" width="2.88846" height="102.334" rx="1.44423" fill="url(#paint9_linear_816_4479)" fill-opacity="0.3"/>
<rect x="83.0319" y="0.570312" width="2.88846" height="102.334" rx="1.44423" fill="#212A32"/>
<rect x="83.0319" y="0.570312" width="2.88846" height="102.334" rx="1.44423" fill="url(#paint10_linear_816_4479)" fill-opacity="0.3"/>
<rect x="110.472" y="23.4595" width="2.693" height="109.761" rx="1.3465" transform="rotate(90 110.472 23.4595)" fill="#212A32"/>
<rect x="110.472" y="28.8452" width="2.693" height="109.761" rx="1.3465" transform="rotate(90 110.472 28.8452)" fill="#212A32"/>
<rect x="110.472" y="34.2305" width="2.693" height="109.761" rx="1.3465" transform="rotate(90 110.472 34.2305)" fill="#212A32"/>
<rect x="110.472" y="39.6162" width="2.693" height="109.761" rx="1.3465" transform="rotate(90 110.472 39.6162)" fill="#212A32"/>
<rect x="110.472" y="45.0039" width="2.693" height="109.761" rx="1.3465" transform="rotate(90 110.472 45.0039)" fill="#212A32"/>
<rect x="110.472" y="50.3911" width="2.693" height="109.761" rx="1.3465" transform="rotate(90 110.472 50.3911)" fill="#212A32"/>
<rect x="110.472" y="55.7749" width="2.693" height="109.761" rx="1.3465" transform="rotate(90 110.472 55.7749)" fill="#212A32"/>
<rect x="110.472" y="61.1606" width="2.693" height="109.761" rx="1.3465" transform="rotate(90 110.472 61.1606)" fill="#212A32"/>
<rect x="110.472" y="66.5464" width="2.693" height="109.761" rx="1.3465" transform="rotate(90 110.472 66.5464)" fill="#212A32"/>
<rect x="110.472" y="71.9336" width="2.693" height="109.761" rx="1.3465" transform="rotate(90 110.472 71.9336)" fill="#212A32"/>
<rect x="110.472" y="77.3193" width="2.693" height="109.761" rx="1.3465" transform="rotate(90 110.472 77.3193)" fill="#212A32"/>
<g filter="url(#filter0_d_816_4479)">
<rect x="9.37676" y="8.65039" width="92.4307" height="86.176" rx="4.95164" fill="#0F1417"/>
<rect x="9.7894" y="9.06303" width="91.6054" height="85.3507" rx="4.53901" stroke="url(#paint11_linear_816_4479)" stroke-opacity="0.6" stroke-width="0.825274"/>
<rect x="9.7894" y="9.06303" width="91.6054" height="85.3507" rx="4.53901" stroke="url(#paint12_linear_816_4479)" stroke-opacity="0.35" stroke-width="0.825274" style="mix-blend-mode:screen"/>
</g>
<rect x="38.2614" y="35.5806" width="34.6615" height="32.316" rx="0.825274" fill="#050809"/>
<rect x="37.8487" y="35.1679" width="35.4868" height="33.1413" rx="1.23791" stroke="url(#paint13_linear_816_4479)" stroke-opacity="0.6" stroke-width="0.825274"/>
<rect width="5.77692" height="5.386" rx="0.825274" transform="matrix(-1 0 0 1 26.7075 19.4219)" fill="#040507"/>
<rect width="5.77692" height="5.386" rx="0.825274" transform="matrix(-1 0 0 1 90.2536 19.4219)" fill="#040507"/>
<rect width="5.77692" height="5.386" rx="0.825274" transform="matrix(-1 0 0 1 26.7075 78.6689)" fill="#040507"/>
<rect width="5.77692" height="5.386" rx="0.825274" transform="matrix(-1 0 0 1 90.2536 78.6689)" fill="#040507"/>
<defs>
<filter id="filter0_d_816_4479" x="4.42512" y="6.17457" width="102.334" height="96.0791" filterUnits="userSpaceOnUse" color-interpolation-filters="sRGB">
<feFlood flood-opacity="0" result="BackgroundImageFix"/>
<feColorMatrix in="SourceAlpha" type="matrix" values="0 0 0 0 0 0 0 0 0 0 0 0 0 0 0 0 0 0 127 0" result="hardAlpha"/>
<feOffset dy="2.47582"/>
<feGaussianBlur stdDeviation="2.47582"/>
<feColorMatrix type="matrix" values="0 0 0 0 0 0 0 0 0 0 0 0 0 0 0 0 0 0 0.8 0"/>
<feBlend mode="normal" in2="BackgroundImageFix" result="effect1_dropShadow_816_4479"/>
<feBlend mode="normal" in="SourceGraphic" in2="effect1_dropShadow_816_4479" result="shape"/>
</filter>
<linearGradient id="paint0_linear_816_4479" x1="26.7068" y1="0.570312" x2="26.7068" y2="102.904" gradientUnits="userSpaceOnUse">
<stop stop-color="#0FA3B1"/>
<stop offset="0.0625" stop-color="#E80A89" stop-opacity="0"/>
</linearGradient>
<linearGradient id="paint1_linear_816_4479" x1="32.4839" y1="0.570312" x2="32.4839" y2="102.904" gradientUnits="userSpaceOnUse">
<stop stop-color="#0FA3B1"/>
<stop offset="0.0625" stop-color="#E80A89" stop-opacity="0"/>
</linearGradient>
<linearGradient id="paint2_linear_816_4479" x1="38.2608" y1="0.570312" x2="38.2608" y2="102.904" gradientUnits="userSpaceOnUse">
<stop stop-color="#0FA3B1"/>
<stop offset="0.0625" stop-color="#E80A89" stop-opacity="0"/>
</linearGradient>
<linearGradient id="paint3_linear_816_4479" x1="44.0387" y1="0.570312" x2="44.0387" y2="102.904" gradientUnits="userSpaceOnUse">
<stop stop-color="#0FA3B1"/>
<stop offset="0.0625" stop-color="#E80A89" stop-opacity="0"/>
</linearGradient>
<linearGradient id="paint4_linear_816_4479" x1="49.8146" y1="0.570312" x2="49.8146" y2="102.904" gradientUnits="userSpaceOnUse">
<stop stop-color="#0FA3B1"/>
<stop offset="0.0625" stop-color="#E80A89" stop-opacity="0"/>
</linearGradient>
<linearGradient id="paint5_linear_816_4479" x1="55.5925" y1="0.570312" x2="55.5925" y2="102.904" gradientUnits="userSpaceOnUse">
<stop stop-color="#0FA3B1"/>
<stop offset="0.0625" stop-color="#E80A89" stop-opacity="0"/>
</linearGradient>
<linearGradient id="paint6_linear_816_4479" x1="61.3685" y1="0.570312" x2="61.3685" y2="102.904" gradientUnits="userSpaceOnUse">
<stop stop-color="#0FA3B1"/>
<stop offset="0.0625" stop-color="#E80A89" stop-opacity="0"/>
</linearGradient>
<linearGradient id="paint7_linear_816_4479" x1="67.1454" y1="0.570312" x2="67.1454" y2="102.904" gradientUnits="userSpaceOnUse">
<stop stop-color="#0FA3B1"/>
<stop offset="0.0625" stop-color="#E80A89" stop-opacity="0"/>
</linearGradient>
<linearGradient id="paint8_linear_816_4479" x1="72.9223" y1="0.570312" x2="72.9223" y2="102.904" gradientUnits="userSpaceOnUse">
<stop stop-color="#0FA3B1"/>
<stop offset="0.0625" stop-color="#E80A89" stop-opacity="0"/>
</linearGradient>
<linearGradient id="paint9_linear_816_4479" x1="78.6992" y1="0.570312" x2="78.6992" y2="102.904" gradientUnits="userSpaceOnUse">
<stop stop-color="#0FA3B1"/>
<stop offset="0.0625" stop-color="#E80A89" stop-opacity="0"/>
</linearGradient>
<linearGradient id="paint10_linear_816_4479" x1="84.4761" y1="0.570312" x2="84.4761" y2="102.904" gradientUnits="userSpaceOnUse">
<stop stop-color="#0FA3B1"/>
<stop offset="0.0625" stop-color="#E80A89" stop-opacity="0"/>
</linearGradient>
<linearGradient id="paint11_linear_816_4479" x1="55.5921" y1="8.65039" x2="55.5921" y2="94.8264" gradientUnits="userSpaceOnUse">
<stop stop-color="#2C333A"/>
<stop offset="1" stop-color="#262C32" stop-opacity="0"/>
</linearGradient>
<linearGradient id="paint12_linear_816_4479" x1="55.5921" y1="8.65039" x2="55.5921" y2="27.5014" gradientUnits="userSpaceOnUse">
<stop stop-color="#0FA3B1"/>
<stop offset="1" stop-color="#E80A89" stop-opacity="0"/>
</linearGradient>
<linearGradient id="paint13_linear_816_4479" x1="55.5921" y1="35.5806" x2="55.5921" y2="67.8966" gradientUnits="userSpaceOnUse">
<stop stop-color="#262C32" stop-opacity="0"/>
<stop offset="1" stop-color="#2C333A"/>
</linearGradient>
</defs>
</svg>
