<svg width="313" height="139" viewBox="0 0 313 139" fill="none" xmlns="http://www.w3.org/2000/svg">
<path d="M86.606 4.95827C86.606 2.21989 88.8259 0 91.5643 0C94.3027 0 96.5225 2.21989 96.5225 4.95827L96.5225 133.688C96.5225 136.426 94.3027 138.646 91.5643 138.646C88.8259 138.646 86.606 136.426 86.606 133.688L86.606 4.95827Z" fill="#363A3D"/>
<path d="M63.467 5.28882C63.467 2.36789 65.8349 0 68.7559 0C71.6768 0 74.0447 2.36788 74.0447 5.28881L74.0447 133.357C74.0447 136.278 71.6768 138.646 68.7559 138.646C65.8349 138.646 63.467 136.278 63.467 133.357L63.467 5.28882Z" fill="#363A3D"/>
<path d="M40.9895 4.95827C40.9895 2.21989 43.2094 0 45.9477 0C48.6861 0 50.906 2.21989 50.906 4.95827L50.906 133.688C50.906 136.426 48.6861 138.646 45.9477 138.646C43.2094 138.646 40.9895 136.426 40.9895 133.688L40.9895 4.95827Z" fill="#363A3D"/>
<path d="M18.5119 4.95827C18.5119 2.21989 20.7318 0 23.4701 0C26.2085 0 28.4284 2.21989 28.4284 4.95827L28.4284 133.688C28.4284 136.426 26.2085 138.646 23.4701 138.646C20.7318 138.646 18.5119 136.426 18.5119 133.688L18.5119 4.95827Z" fill="#363A3D"/>
<path d="M109.084 4.95827C109.084 2.21989 111.303 0 114.042 0C116.78 0 119 2.21989 119 4.95827L119 133.688C119 136.426 116.78 138.646 114.042 138.646C111.303 138.646 109.084 136.426 109.084 133.688L109.084 4.95827Z" fill="#363A3D"/>
<path d="M131.56 5.28882C131.56 2.36789 133.928 0 136.849 0C139.77 0 142.138 2.36788 142.138 5.28881L142.138 133.357C142.138 136.278 139.77 138.646 136.849 138.646C133.928 138.646 131.56 136.278 131.56 133.357L131.56 5.28882Z" fill="#363A3D"/>
<path d="M154.038 5.28882C154.038 2.36789 156.406 0 159.327 0C162.248 0 164.615 2.36788 164.615 5.28881L164.615 133.357C164.615 136.278 162.248 138.646 159.327 138.646C156.406 138.646 154.038 136.278 154.038 133.357L154.038 5.28882Z" fill="#363A3D"/>
<path d="M177.177 4.95827C177.177 2.21989 179.397 0 182.135 0C184.873 0 187.093 2.21989 187.093 4.95827L187.093 133.688C187.093 136.426 184.873 138.646 182.135 138.646C179.397 138.646 177.177 136.426 177.177 133.688L177.177 4.95827Z" fill="#363A3D"/>
<path d="M199.653 5.28882C199.653 2.36789 202.021 0 204.942 0C207.863 0 210.231 2.36788 210.231 5.28881L210.231 133.357C210.231 136.278 207.863 138.646 204.942 138.646C202.021 138.646 199.653 136.278 199.653 133.357L199.653 5.28882Z" fill="#363A3D"/>
<path d="M222.131 5.28882C222.131 2.36789 224.499 0 227.42 0C230.341 0 232.709 2.36788 232.709 5.28881L232.709 133.357C232.709 136.278 230.341 138.646 227.42 138.646C224.499 138.646 222.131 136.278 222.131 133.357L222.131 5.28882Z" fill="#363A3D"/>
<path d="M245.27 4.95827C245.27 2.21989 247.49 0 250.228 0C252.967 0 255.186 2.21989 255.186 4.95827L255.186 133.688C255.186 136.426 252.967 138.646 250.228 138.646C247.49 138.646 245.27 136.426 245.27 133.688L245.27 4.95827Z" fill="#363A3D"/>
<path d="M267.748 5.28882C267.748 2.36789 270.115 0 273.036 0C275.957 0 278.325 2.36788 278.325 5.28881L278.325 133.357C278.325 136.278 275.957 138.646 273.036 138.646C270.115 138.646 267.748 136.278 267.748 133.357L267.748 5.28882Z" fill="#363A3D"/>
<path d="M290.225 5.28882C290.225 2.36789 292.593 0 295.514 0C298.435 0 300.803 2.36788 300.803 5.28881L300.803 133.357C300.803 136.278 298.435 138.646 295.514 138.646C292.593 138.646 290.225 136.278 290.225 133.357L290.225 5.28882Z" fill="#363A3D"/>
<g filter="url(#filter0_d_816_4541)">
<rect x="1.95508" y="20.7974" width="309.065" height="97.0522" rx="0.825274" fill="#0F1417"/>
<rect x="2.36772" y="21.21" width="308.24" height="96.2269" rx="0.412637" stroke="url(#paint0_linear_816_4541)" stroke-opacity="0.3" stroke-width="0.825274"/>
</g>
<rect x="5.66928" y="27.2328" width="301.225" height="84.1779" rx="0.783404" fill="#12191D"/>
<rect x="40.5885" y="62.3908" width="11.038" height="13.8646" rx="5.51902" fill="black"/>
<rect x="40.1759" y="61.9782" width="11.8633" height="14.6899" rx="5.93166" stroke="url(#paint1_linear_816_4541)" stroke-opacity="0.3" stroke-width="0.825274"/>
<rect x="266.868" y="62.3908" width="11.038" height="13.8646" rx="5.51902" fill="black"/>
<rect x="266.455" y="61.9782" width="11.8633" height="14.6899" rx="5.93166" stroke="url(#paint2_linear_816_4541)" stroke-opacity="0.3" stroke-width="0.825274"/>
<defs>
<filter id="filter0_d_816_4541" x="0.30453" y="19.1468" width="312.366" height="100.353" filterUnits="userSpaceOnUse" color-interpolation-filters="sRGB">
<feFlood flood-opacity="0" result="BackgroundImageFix"/>
<feColorMatrix in="SourceAlpha" type="matrix" values="0 0 0 0 0 0 0 0 0 0 0 0 0 0 0 0 0 0 127 0" result="hardAlpha"/>
<feOffset/>
<feGaussianBlur stdDeviation="0.825274"/>
<feColorMatrix type="matrix" values="0 0 0 0 0 0 0 0 0 0 0 0 0 0 0 0 0 0 0.8 0"/>
<feBlend mode="normal" in2="BackgroundImageFix" result="effect1_dropShadow_816_4541"/>
<feBlend mode="normal" in="SourceGraphic" in2="effect1_dropShadow_816_4541" result="shape"/>
</filter>
<linearGradient id="paint0_linear_816_4541" x1="1.95508" y1="69.3234" x2="311.02" y2="69.3234" gradientUnits="userSpaceOnUse">
<stop stop-color="#2C333A"/>
<stop offset="1" stop-color="#262C32" stop-opacity="0"/>
</linearGradient>
<linearGradient id="paint1_linear_816_4541" x1="40.5885" y1="69.3231" x2="51.6266" y2="69.3231" gradientUnits="userSpaceOnUse">
<stop stop-color="#262C32" stop-opacity="0"/>
<stop offset="1" stop-color="#2C333A"/>
</linearGradient>
<linearGradient id="paint2_linear_816_4541" x1="266.868" y1="69.3231" x2="277.906" y2="69.3231" gradientUnits="userSpaceOnUse">
<stop stop-color="#262C32" stop-opacity="0"/>
<stop offset="1" stop-color="#2C333A"/>
</linearGradient>
</defs>
</svg>
