<svg width="44" height="126" viewBox="0 0 44 126" fill="none" xmlns="http://www.w3.org/2000/svg">
<path d="M42.4901 35.058C43.0883 35.058 43.5732 35.5429 43.5732 36.1412C43.5732 36.7394 43.0883 37.2243 42.4901 37.2243L1.32954 37.2243C0.731319 37.2243 0.246368 36.7394 0.246368 36.1412C0.246368 35.5429 0.731319 35.058 1.32954 35.058L42.4901 35.058Z" fill="#273139"/>
<path d="M42.4901 30.7261C43.0883 30.7261 43.5732 31.211 43.5732 31.8092C43.5732 32.4075 43.0883 32.8924 42.4901 32.8924L1.32954 32.8924C0.731319 32.8924 0.246368 32.4075 0.246368 31.8092C0.246368 31.211 0.731319 30.7261 1.32954 30.7261L42.4901 30.7261Z" fill="#273139"/>
<path d="M42.4901 26.3922C43.0883 26.3922 43.5732 26.8772 43.5732 27.4754C43.5732 28.0736 43.0883 28.5586 42.4901 28.5586L1.32954 28.5586C0.731319 28.5586 0.246368 28.0736 0.246368 27.4754C0.246368 26.8772 0.731319 26.3922 1.32954 26.3922L42.4901 26.3922Z" fill="#273139"/>
<path d="M42.4901 22.0602C43.0883 22.0602 43.5732 22.5451 43.5732 23.1434C43.5732 23.7416 43.0883 24.2265 42.4901 24.2265L1.32954 24.2265C0.731319 24.2265 0.246368 23.7416 0.246368 23.1434C0.246368 22.5451 0.731319 22.0602 1.32954 22.0602L42.4901 22.0602Z" fill="#273139"/>
<path d="M42.4901 17.7283C43.0883 17.7283 43.5732 18.2132 43.5732 18.8114C43.5732 19.4097 43.0883 19.8946 42.4901 19.8946L1.32954 19.8946C0.731319 19.8946 0.246368 19.4097 0.246368 18.8114C0.246368 18.2132 0.731319 17.7283 1.32954 17.7283L42.4901 17.7283Z" fill="#273139"/>
<path d="M42.4901 13.3944C43.0883 13.3944 43.5732 13.8794 43.5732 14.4776C43.5732 15.0758 43.0883 15.5608 42.4901 15.5608L1.32954 15.5608C0.731319 15.5608 0.246368 15.0758 0.246368 14.4776C0.246368 13.8794 0.731319 13.3944 1.32954 13.3944L42.4901 13.3944Z" fill="#273139"/>
<path d="M42.4901 9.06238C43.0883 9.06238 43.5732 9.54733 43.5732 10.1456C43.5732 10.7438 43.0883 11.2287 42.4901 11.2287L1.32954 11.2287C0.731319 11.2287 0.246368 10.7438 0.246368 10.1455C0.246368 9.54733 0.731319 9.06238 1.32954 9.06238L42.4901 9.06238Z" fill="#273139"/>
<path d="M42.4901 39.392C43.0883 39.392 43.5732 39.8769 43.5732 40.4751C43.5732 41.0734 43.0883 41.5583 42.4901 41.5583L1.32954 41.5583C0.731319 41.5583 0.246368 41.0734 0.246368 40.4751C0.246368 39.8769 0.731319 39.392 1.32954 39.392L42.4901 39.392Z" fill="#273139"/>
<path d="M42.4901 43.7239C43.0883 43.7239 43.5732 44.2088 43.5732 44.807C43.5732 45.4053 43.0883 45.8902 42.4901 45.8902L1.32954 45.8902C0.731319 45.8902 0.246368 45.4053 0.246368 44.807C0.246368 44.2088 0.731319 43.7239 1.32954 43.7239L42.4901 43.7239Z" fill="#273139"/>
<path d="M42.4901 48.0559C43.0883 48.0559 43.5732 48.5409 43.5732 49.1391C43.5732 49.7373 43.0883 50.2223 42.4901 50.2223L1.32954 50.2223C0.731319 50.2223 0.246368 49.7373 0.246368 49.1391C0.246368 48.5409 0.731319 48.0559 1.32954 48.0559L42.4901 48.0559Z" fill="#273139"/>
<path d="M42.4901 52.3898C43.0883 52.3898 43.5732 52.8747 43.5732 53.4729C43.5732 54.0712 43.0883 54.5561 42.4901 54.5561L1.32954 54.5561C0.731319 54.5561 0.246368 54.0712 0.246368 53.4729C0.246368 52.8747 0.731319 52.3898 1.32954 52.3898L42.4901 52.3898Z" fill="#273139"/>
<path d="M42.4901 56.7217C43.0883 56.7217 43.5732 57.2066 43.5732 57.8049C43.5732 58.4031 43.0883 58.888 42.4901 58.888L1.32954 58.888C0.731319 58.888 0.246368 58.4031 0.246368 57.8048C0.246368 57.2066 0.731319 56.7217 1.32954 56.7217L42.4901 56.7217Z" fill="#273139"/>
<path d="M42.4901 61.0537C43.0883 61.0537 43.5732 61.5387 43.5732 62.1369C43.5732 62.7351 43.0883 63.2201 42.4901 63.2201L1.32954 63.2201C0.731319 63.2201 0.246368 62.7351 0.246368 62.1369C0.246368 61.5387 0.731319 61.0537 1.32954 61.0537L42.4901 61.0537Z" fill="#273139"/>
<path d="M42.4901 65.3876C43.0883 65.3876 43.5732 65.8725 43.5732 66.4707C43.5732 67.069 43.0883 67.5539 42.4901 67.5539L1.32954 67.5539C0.731319 67.5539 0.246368 67.069 0.246368 66.4707C0.246368 65.8725 0.731319 65.3876 1.32954 65.3876L42.4901 65.3876Z" fill="#273139"/>
<path d="M42.4901 69.7196C43.0883 69.7196 43.5732 70.2046 43.5732 70.8028C43.5732 71.401 43.0883 71.8859 42.4901 71.8859L1.32954 71.8859C0.731319 71.8859 0.246368 71.401 0.246368 70.8028C0.246368 70.2046 0.731319 69.7196 1.32954 69.7196L42.4901 69.7196Z" fill="#273139"/>
<path d="M42.4901 74.0535C43.0883 74.0535 43.5732 74.5384 43.5732 75.1366C43.5732 75.7349 43.0883 76.2198 42.4901 76.2198L1.32954 76.2198C0.731319 76.2198 0.246368 75.7349 0.246368 75.1366C0.246368 74.5384 0.731319 74.0535 1.32954 74.0535L42.4901 74.0535Z" fill="#273139"/>
<path d="M42.4901 78.3854C43.0883 78.3854 43.5732 78.8703 43.5732 79.4685C43.5732 80.0668 43.0883 80.5517 42.4901 80.5517L1.32954 80.5517C0.731319 80.5517 0.246368 80.0668 0.246368 79.4685C0.246368 78.8703 0.731319 78.3854 1.32954 78.3854L42.4901 78.3854Z" fill="#273139"/>
<path d="M42.4901 82.7174C43.0883 82.7174 43.5732 83.2024 43.5732 83.8006C43.5732 84.3988 43.0883 84.8838 42.4901 84.8838L1.32954 84.8837C0.731319 84.8837 0.246368 84.3988 0.246368 83.8006C0.246368 83.2024 0.731319 82.7174 1.32954 82.7174L42.4901 82.7174Z" fill="#273139"/>
<path d="M42.4901 87.0513C43.0883 87.0513 43.5732 87.5362 43.5732 88.1344C43.5732 88.7327 43.0883 89.2176 42.4901 89.2176L1.32954 89.2176C0.731319 89.2176 0.246368 88.7327 0.246368 88.1344C0.246368 87.5362 0.731319 87.0513 1.32954 87.0513L42.4901 87.0513Z" fill="#273139"/>
<path d="M42.4901 91.3833C43.0883 91.3833 43.5732 91.8683 43.5732 92.4665C43.5732 93.0647 43.0883 93.5496 42.4901 93.5496L1.32954 93.5496C0.731319 93.5496 0.246368 93.0647 0.246368 92.4665C0.246368 91.8683 0.731319 91.3833 1.32954 91.3833L42.4901 91.3833Z" fill="#273139"/>
<path d="M42.4901 95.7152C43.0883 95.7152 43.5732 96.2002 43.5732 96.7984C43.5732 97.3966 43.0883 97.8816 42.4901 97.8816L1.32954 97.8816C0.731319 97.8816 0.246368 97.3966 0.246368 96.7984C0.246368 96.2002 0.731319 95.7152 1.32954 95.7152L42.4901 95.7152Z" fill="#273139"/>
<path d="M42.4901 100.049C43.0883 100.049 43.5732 100.534 43.5732 101.132C43.5732 101.73 43.0883 102.215 42.4901 102.215L1.32954 102.215C0.731319 102.215 0.246368 101.73 0.246368 101.132C0.246368 100.534 0.731319 100.049 1.32954 100.049L42.4901 100.049Z" fill="#273139"/>
<path d="M42.4901 104.381C43.0883 104.381 43.5732 104.866 43.5732 105.464C43.5732 106.062 43.0883 106.547 42.4901 106.547L1.32954 106.547C0.731319 106.547 0.246368 106.062 0.246368 105.464C0.246368 104.866 0.731319 104.381 1.32954 104.381L42.4901 104.381Z" fill="#273139"/>
<path d="M42.4901 108.715C43.0883 108.715 43.5732 109.2 43.5732 109.798C43.5732 110.396 43.0883 110.881 42.4901 110.881L1.32954 110.881C0.731319 110.881 0.246368 110.396 0.246368 109.798C0.246368 109.2 0.731319 108.715 1.32954 108.715L42.4901 108.715Z" fill="#273139"/>
<path d="M42.4901 113.047C43.0883 113.047 43.5732 113.532 43.5732 114.13C43.5732 114.728 43.0883 115.213 42.4901 115.213L1.32954 115.213C0.731319 115.213 0.246368 114.728 0.246368 114.13C0.246368 113.532 0.731319 113.047 1.32954 113.047L42.4901 113.047Z" fill="#273139"/>
<path d="M42.4901 117.379C43.0883 117.379 43.5732 117.864 43.5732 118.462C43.5732 119.06 43.0883 119.545 42.4901 119.545L1.32954 119.545C0.731319 119.545 0.246368 119.06 0.246368 118.462C0.246368 117.864 0.731319 117.379 1.32954 117.379L42.4901 117.379Z" fill="#273139"/>
<g filter="url(#filter0_d_816_4200)">
<rect x="37.0747" y="2.56445" width="121.315" height="30.3288" rx="0.825274" transform="rotate(90 37.0747 2.56445)" fill="#111518"/>
<rect x="36.6621" y="2.97709" width="120.49" height="29.5035" rx="0.412637" transform="rotate(90 36.6621 2.97709)" stroke="url(#paint0_linear_816_4200)" stroke-opacity="0.3" stroke-width="0.825274"/>
</g>
<rect x="24.0759" y="17.7283" width="4.33269" height="4.33269" rx="2.16634" transform="rotate(90 24.0759 17.7283)" fill="black"/>
<rect x="24.4886" y="17.3156" width="5.15796" height="5.15796" rx="2.57898" transform="rotate(90 24.4886 17.3156)" stroke="url(#paint1_linear_816_4200)" stroke-opacity="0.3" stroke-width="0.825274"/>
<rect x="24.0759" y="106.549" width="4.33269" height="4.33269" rx="2.16634" transform="rotate(90 24.0759 106.549)" fill="black"/>
<rect x="24.4886" y="106.136" width="5.15796" height="5.15796" rx="2.57898" transform="rotate(90 24.4886 106.136)" stroke="url(#paint2_linear_816_4200)" stroke-opacity="0.3" stroke-width="0.825274"/>
<defs>
<filter id="filter0_d_816_4200" x="5.09536" y="0.913905" width="33.6299" height="124.616" filterUnits="userSpaceOnUse" color-interpolation-filters="sRGB">
<feFlood flood-opacity="0" result="BackgroundImageFix"/>
<feColorMatrix in="SourceAlpha" type="matrix" values="0 0 0 0 0 0 0 0 0 0 0 0 0 0 0 0 0 0 127 0" result="hardAlpha"/>
<feOffset/>
<feGaussianBlur stdDeviation="0.825274"/>
<feColorMatrix type="matrix" values="0 0 0 0 0 0 0 0 0 0 0 0 0 0 0 0 0 0 0.8 0"/>
<feBlend mode="normal" in2="BackgroundImageFix" result="effect1_dropShadow_816_4200"/>
<feBlend mode="normal" in="SourceGraphic" in2="effect1_dropShadow_816_4200" result="shape"/>
</filter>
<linearGradient id="paint0_linear_816_4200" x1="37.0747" y1="17.7289" x2="158.39" y2="17.7288" gradientUnits="userSpaceOnUse">
<stop stop-color="#2C333A"/>
<stop offset="1" stop-color="#262C32" stop-opacity="0"/>
</linearGradient>
<linearGradient id="paint1_linear_816_4200" x1="24.0759" y1="19.8946" x2="28.4086" y2="19.8946" gradientUnits="userSpaceOnUse">
<stop stop-color="#262C32" stop-opacity="0"/>
<stop offset="1" stop-color="#2C333A"/>
</linearGradient>
<linearGradient id="paint2_linear_816_4200" x1="24.0759" y1="108.715" x2="28.4086" y2="108.715" gradientUnits="userSpaceOnUse">
<stop stop-color="#262C32" stop-opacity="0"/>
<stop offset="1" stop-color="#2C333A"/>
</linearGradient>
</defs>
</svg>
