<svg width="73" height="208" viewBox="0 0 73 208" fill="none" xmlns="http://www.w3.org/2000/svg">
<path d="M70.8081 57.0908C71.8108 57.0908 72.6237 57.9037 72.6237 58.9064C72.6237 59.9092 71.8108 60.722 70.8081 60.722L1.81523 60.722C0.8125 60.722 -0.000373964 59.9091 -0.00037392 58.9064C-0.000373876 57.9037 0.8125 57.0908 1.81523 57.0908L70.8081 57.0908Z" fill="#273139"/>
<path d="M70.8081 49.8274C71.8108 49.8274 72.6237 50.6403 72.6237 51.643C72.6237 52.6457 71.8108 53.4586 70.8081 53.4586L1.81523 53.4586C0.8125 53.4586 -0.000373964 52.6457 -0.00037392 51.643C-0.000373876 50.6403 0.8125 49.8274 1.81523 49.8274L70.8081 49.8274Z" fill="#273139"/>
<path d="M70.8081 42.5637C71.8108 42.5637 72.6237 43.3766 72.6237 44.3793C72.6237 45.3821 71.8108 46.1949 70.8081 46.1949L1.81523 46.1949C0.8125 46.1949 -0.000373964 45.382 -0.00037392 44.3793C-0.000373876 43.3766 0.8125 42.5637 1.81523 42.5637L70.8081 42.5637Z" fill="#273139"/>
<path d="M70.8081 35.302C71.8108 35.302 72.6237 36.1149 72.6237 37.1176C72.6237 38.1203 71.8108 38.9332 70.8081 38.9332L1.81523 38.9332C0.8125 38.9332 -0.000373964 38.1203 -0.00037392 37.1176C-0.000373876 36.1149 0.8125 35.302 1.81523 35.302L70.8081 35.302Z" fill="#273139"/>
<path d="M70.8081 28.0405C71.8108 28.0405 72.6237 28.8534 72.6237 29.8561C72.6237 30.8589 71.8108 31.6717 70.8081 31.6717L1.81523 31.6717C0.8125 31.6717 -0.000373964 30.8589 -0.00037392 29.8561C-0.000373876 28.8534 0.8125 28.0405 1.81523 28.0405L70.8081 28.0405Z" fill="#273139"/>
<path d="M70.8081 20.7788C71.8108 20.7788 72.6237 21.5917 72.6237 22.5944C72.6237 23.5971 71.8108 24.41 70.8081 24.41L1.81523 24.41C0.8125 24.41 -0.000373964 23.5971 -0.00037392 22.5944C-0.000373876 21.5917 0.8125 20.7788 1.81523 20.7788L70.8081 20.7788Z" fill="#273139"/>
<path d="M70.8083 13.5154C71.811 13.5154 72.6239 14.3283 72.6239 15.331C72.6239 16.3337 71.811 17.1466 70.8083 17.1466L1.81541 17.1466C0.812683 17.1466 -0.000190858 16.3337 -0.000190814 15.331C-0.00019077 14.3283 0.812683 13.5154 1.81541 13.5154L70.8083 13.5154Z" fill="#273139"/>
<path d="M70.8081 64.3525C71.8108 64.3525 72.6237 65.1654 72.6237 66.1681C72.6237 67.1709 71.8108 67.9837 70.8081 67.9837L1.81523 67.9837C0.8125 67.9837 -0.000373964 67.1709 -0.00037392 66.1681C-0.000373876 65.1654 0.8125 64.3525 1.81523 64.3525L70.8081 64.3525Z" fill="#273139"/>
<path d="M70.8081 71.6143C71.8108 71.6143 72.6237 72.4271 72.6237 73.4299C72.6237 74.4326 71.8108 75.2455 70.8081 75.2455L1.81523 75.2455C0.8125 75.2455 -0.000373964 74.4326 -0.00037392 73.4299C-0.000373876 72.4271 0.8125 71.6143 1.81523 71.6143L70.8081 71.6143Z" fill="#273139"/>
<path d="M70.8081 78.8757C71.8108 78.8757 72.6237 79.6886 72.6237 80.6913C72.6237 81.6941 71.8108 82.5069 70.8081 82.5069L1.81523 82.5069C0.8125 82.5069 -0.000373964 81.6941 -0.00037392 80.6913C-0.000373876 79.6886 0.8125 78.8757 1.81523 78.8757L70.8081 78.8757Z" fill="#273139"/>
<path d="M70.8081 86.1394C71.8108 86.1394 72.6237 86.9523 72.6237 87.955C72.6237 88.9577 71.8108 89.7706 70.8081 89.7706L1.81523 89.7706C0.8125 89.7706 -0.000373964 88.9577 -0.00037392 87.955C-0.000373876 86.9523 0.8125 86.1394 1.81523 86.1394L70.8081 86.1394Z" fill="#273139"/>
<path d="M70.8081 93.4028C71.8108 93.4028 72.6237 94.2157 72.6237 95.2184C72.6237 96.2212 71.8108 97.034 70.8081 97.034L1.81523 97.034C0.8125 97.034 -0.000373964 96.2212 -0.00037392 95.2184C-0.000373876 94.2157 0.8125 93.4028 1.81523 93.4028L70.8081 93.4028Z" fill="#273139"/>
<path d="M70.8081 100.665C71.8108 100.665 72.6237 101.477 72.6237 102.48C72.6237 103.483 71.8108 104.296 70.8081 104.296L1.81523 104.296C0.8125 104.296 -0.000373964 103.483 -0.00037392 102.48C-0.000373876 101.477 0.8125 100.665 1.81523 100.665L70.8081 100.665Z" fill="#273139"/>
<path d="M70.8081 107.926C71.8108 107.926 72.6237 108.739 72.6237 109.742C72.6237 110.745 71.8108 111.557 70.8081 111.557L1.81523 111.557C0.8125 111.557 -0.000373964 110.745 -0.00037392 109.742C-0.000373876 108.739 0.8125 107.926 1.81523 107.926L70.8081 107.926Z" fill="#273139"/>
<path d="M70.8081 115.188C71.8108 115.188 72.6237 116.001 72.6237 117.004C72.6237 118.006 71.8108 118.819 70.8081 118.819L1.81523 118.819C0.8125 118.819 -0.000373964 118.006 -0.00037392 117.004C-0.000373876 116.001 0.8125 115.188 1.81523 115.188L70.8081 115.188Z" fill="#273139"/>
<path d="M70.8081 122.451C71.8108 122.451 72.6237 123.264 72.6237 124.267C72.6237 125.27 71.8108 126.083 70.8081 126.083L1.81523 126.083C0.8125 126.083 -0.000373964 125.27 -0.00037392 124.267C-0.000373876 123.264 0.8125 122.451 1.81523 122.451L70.8081 122.451Z" fill="#273139"/>
<path d="M70.8081 129.715C71.8108 129.715 72.6237 130.528 72.6237 131.531C72.6237 132.533 71.8108 133.346 70.8081 133.346L1.81523 133.346C0.8125 133.346 -0.000373964 132.533 -0.00037392 131.531C-0.000373876 130.528 0.8125 129.715 1.81523 129.715L70.8081 129.715Z" fill="#273139"/>
<path d="M70.8081 136.977C71.8108 136.977 72.6237 137.789 72.6237 138.792C72.6237 139.795 71.8108 140.608 70.8081 140.608L1.81523 140.608C0.8125 140.608 -0.000373964 139.795 -0.00037392 138.792C-0.000373876 137.789 0.8125 136.977 1.81523 136.977L70.8081 136.977Z" fill="#273139"/>
<path d="M70.8081 144.238C71.8108 144.238 72.6237 145.051 72.6237 146.054C72.6237 147.057 71.8108 147.869 70.8081 147.869L1.81523 147.869C0.8125 147.869 -0.000373964 147.057 -0.00037392 146.054C-0.000373876 145.051 0.8125 144.238 1.81523 144.238L70.8081 144.238Z" fill="#273139"/>
<path d="M70.8081 151.5C71.8108 151.5 72.6237 152.313 72.6237 153.316C72.6237 154.318 71.8108 155.131 70.8081 155.131L1.81523 155.131C0.8125 155.131 -0.000373964 154.318 -0.00037392 153.316C-0.000373876 152.313 0.8125 151.5 1.81523 151.5L70.8081 151.5Z" fill="#273139"/>
<path d="M70.8081 158.763C71.8108 158.763 72.6237 159.576 72.6237 160.579C72.6237 161.582 71.8108 162.395 70.8081 162.395L1.81523 162.395C0.8125 162.395 -0.000373964 161.582 -0.00037392 160.579C-0.000373876 159.576 0.8125 158.763 1.81523 158.763L70.8081 158.763Z" fill="#273139"/>
<path d="M70.8081 166.027C71.8108 166.027 72.6237 166.84 72.6237 167.843C72.6237 168.845 71.8108 169.658 70.8081 169.658L1.81523 169.658C0.8125 169.658 -0.000373964 168.845 -0.00037392 167.843C-0.000373876 166.84 0.8125 166.027 1.81523 166.027L70.8081 166.027Z" fill="#273139"/>
<path d="M70.8081 173.289C71.8108 173.289 72.6237 174.102 72.6237 175.104C72.6237 176.107 71.8108 176.92 70.8081 176.92L1.81523 176.92C0.8125 176.92 -0.000373964 176.107 -0.00037392 175.104C-0.000373876 174.102 0.8125 173.289 1.81523 173.289L70.8081 173.289Z" fill="#273139"/>
<path d="M70.8081 180.55C71.8108 180.55 72.6237 181.363 72.6237 182.366C72.6237 183.369 71.8108 184.181 70.8081 184.181L1.81523 184.181C0.8125 184.181 -0.000373964 183.369 -0.00037392 182.366C-0.000373876 181.363 0.8125 180.55 1.81523 180.55L70.8081 180.55Z" fill="#273139"/>
<path d="M70.8081 187.812C71.8108 187.812 72.6237 188.625 72.6237 189.628C72.6237 190.63 71.8108 191.443 70.8081 191.443L1.81523 191.443C0.8125 191.443 -0.000373964 190.63 -0.00037392 189.628C-0.000373876 188.625 0.8125 187.812 1.81523 187.812L70.8081 187.812Z" fill="#273139"/>
<path d="M70.8081 195.076C71.8108 195.076 72.6237 195.889 72.6237 196.891C72.6237 197.894 71.8108 198.707 70.8081 198.707L1.81523 198.707C0.8125 198.707 -0.000373964 197.894 -0.00037392 196.891C-0.000373876 195.889 0.8125 195.076 1.81523 195.076L70.8081 195.076Z" fill="#273139"/>
<g filter="url(#filter0_d_816_4262)">
<rect x="61.7295" y="2.62109" width="203.347" height="50.8369" rx="0.825274" transform="rotate(90 61.7295 2.62109)" fill="#111518"/>
<rect x="61.3169" y="3.03373" width="202.522" height="50.0116" rx="0.412637" transform="rotate(90 61.3169 3.03373)" stroke="url(#paint0_linear_816_4262)" stroke-opacity="0.3" stroke-width="0.825274"/>
</g>
<rect x="39.9436" y="28.0408" width="7.26241" height="7.26241" rx="3.6312" transform="rotate(90 39.9436 28.0408)" fill="black"/>
<rect x="40.3562" y="27.6281" width="8.08768" height="8.08768" rx="4.04384" transform="rotate(90 40.3562 27.6281)" stroke="url(#paint1_linear_816_4262)" stroke-opacity="0.3" stroke-width="0.825274"/>
<rect x="39.9436" y="176.918" width="7.26241" height="7.26241" rx="3.6312" transform="rotate(90 39.9436 176.918)" fill="black"/>
<rect x="40.3562" y="176.505" width="8.08768" height="8.08768" rx="4.04384" transform="rotate(90 40.3562 176.505)" stroke="url(#paint2_linear_816_4262)" stroke-opacity="0.3" stroke-width="0.825274"/>
<defs>
<filter id="filter0_d_816_4262" x="9.24209" y="0.970546" width="54.138" height="206.649" filterUnits="userSpaceOnUse" color-interpolation-filters="sRGB">
<feFlood flood-opacity="0" result="BackgroundImageFix"/>
<feColorMatrix in="SourceAlpha" type="matrix" values="0 0 0 0 0 0 0 0 0 0 0 0 0 0 0 0 0 0 127 0" result="hardAlpha"/>
<feOffset/>
<feGaussianBlur stdDeviation="0.825274"/>
<feColorMatrix type="matrix" values="0 0 0 0 0 0 0 0 0 0 0 0 0 0 0 0 0 0 0.8 0"/>
<feBlend mode="normal" in2="BackgroundImageFix" result="effect1_dropShadow_816_4262"/>
<feBlend mode="normal" in="SourceGraphic" in2="effect1_dropShadow_816_4262" result="shape"/>
</filter>
<linearGradient id="paint0_linear_816_4262" x1="61.7295" y1="28.0395" x2="265.077" y2="28.0395" gradientUnits="userSpaceOnUse">
<stop stop-color="#2C333A"/>
<stop offset="1" stop-color="#262C32" stop-opacity="0"/>
</linearGradient>
<linearGradient id="paint1_linear_816_4262" x1="39.9436" y1="31.672" x2="47.206" y2="31.672" gradientUnits="userSpaceOnUse">
<stop stop-color="#262C32" stop-opacity="0"/>
<stop offset="1" stop-color="#2C333A"/>
</linearGradient>
<linearGradient id="paint2_linear_816_4262" x1="39.9436" y1="180.549" x2="47.206" y2="180.549" gradientUnits="userSpaceOnUse">
<stop stop-color="#262C32" stop-opacity="0"/>
<stop offset="1" stop-color="#2C333A"/>
</linearGradient>
</defs>
</svg>
