<svg width="538" height="442" viewBox="0 0 538 442" fill="none" xmlns="http://www.w3.org/2000/svg">
<g filter="url(#filter0_i_816_4144)">
<rect x="0.455017" y="441.977" width="441.522" height="536.989" rx="41.2637" transform="rotate(-90 0.455017 441.977)" fill="#2F3234"/>
<g filter="url(#filter1_d_816_4144)">
<rect x="30.9902" y="401.539" width="360.645" height="480.309" rx="6.60219" transform="rotate(-90 30.9902 401.539)" fill="#0C0C0C"/>
</g>
<g filter="url(#filter2_d_816_4144)">
<rect x="43.3693" y="389.985" width="337.537" height="455.551" rx="6.60219" transform="rotate(-90 43.3693 389.985)" fill="#006771"/>
</g>
<rect x="21.0869" y="431.41" width="22.4444" height="22.4444" rx="11.2222" transform="rotate(-90 21.0869 431.41)" fill="black"/>
<rect x="21.0869" y="33.6296" width="22.4444" height="22.4444" rx="11.2222" transform="rotate(-90 21.0869 33.6296)" fill="black"/>
<rect x="499.746" y="431.41" width="22.4444" height="22.4444" rx="11.2222" transform="rotate(-90 499.746 431.41)" fill="black"/>
<rect x="499.746" y="33.6296" width="22.4444" height="22.4444" rx="11.2222" transform="rotate(-90 499.746 33.6296)" fill="black"/>
<rect x="23.791" y="428.962" width="17.3763" height="17.3763" rx="8.68816" transform="rotate(-90 23.791 428.962)" fill="#111110"/>
<rect x="23.791" y="31.1794" width="17.3763" height="17.3763" rx="8.68816" transform="rotate(-90 23.791 31.1794)" fill="#111110"/>
<rect x="502.449" y="428.962" width="17.3763" height="17.3763" rx="8.68816" transform="rotate(-90 502.449 428.962)" fill="#111110"/>
<rect x="502.449" y="31.1794" width="17.3763" height="17.3763" rx="8.68816" transform="rotate(-90 502.449 31.1794)" fill="#111110"/>
<path d="M224.931 420.204C224.931 422.307 223.225 424.013 221.122 424.013H218.885C216.755 424.013 215.027 422.285 215.027 420.155V420.155V420.155C215.027 418.078 216.711 416.394 218.788 416.394H221.122C223.225 416.394 224.931 418.1 224.931 420.204V420.204Z" fill="#DC9036"/>
<rect x="224.931" y="441.153" width="9.90329" height="20.9499" transform="rotate(-180 224.931 441.153)" fill="#DC9036"/>
<rect x="223.672" y="424.073" width="7.67879" height="7.67879" rx="3.8394" transform="rotate(180 223.672 424.073)" fill="#E4B67F"/>
<path d="M245.563 420.202C245.563 422.305 243.857 424.011 241.754 424.011H239.517C237.386 424.011 235.659 422.284 235.659 420.153V420.153V420.153C235.659 418.076 237.343 416.393 239.42 416.393H241.754C243.857 416.393 245.563 418.098 245.563 420.202V420.202Z" fill="#DC9036"/>
<rect x="245.563" y="441.151" width="9.90329" height="20.9499" transform="rotate(-180 245.563 441.151)" fill="#DC9036"/>
<rect x="244.304" y="424.071" width="7.67879" height="7.67879" rx="3.8394" transform="rotate(180 244.304 424.071)" fill="#E4B67F"/>
<path d="M266.194 420.202C266.194 422.305 264.489 424.011 262.385 424.011H260.149C258.018 424.011 256.291 422.284 256.291 420.153V420.153V420.153C256.291 418.076 257.975 416.393 260.052 416.393H262.385C264.489 416.393 266.194 418.098 266.194 420.202V420.202Z" fill="#DC9036"/>
<rect x="266.194" y="441.151" width="9.90329" height="20.9499" transform="rotate(-180 266.194 441.151)" fill="#DC9036"/>
<rect x="264.936" y="424.071" width="7.67879" height="7.67879" rx="3.8394" transform="rotate(180 264.936 424.071)" fill="#E4B67F"/>
<path d="M286.826 420.202C286.826 422.305 285.121 424.011 283.017 424.011H280.781C278.65 424.011 276.923 422.284 276.923 420.153V420.153V420.153C276.923 418.076 278.607 416.393 280.683 416.393H283.017C285.121 416.393 286.826 418.098 286.826 420.202V420.202Z" fill="#DC9036"/>
<rect x="286.826" y="441.151" width="9.90329" height="20.9499" transform="rotate(-180 286.826 441.151)" fill="#DC9036"/>
<rect x="285.568" y="424.071" width="7.67879" height="7.67879" rx="3.8394" transform="rotate(180 285.568 424.071)" fill="#E4B67F"/>
<path d="M21.4036 202.647C19.2999 202.647 17.5945 200.941 17.5945 198.838V196.601C17.5945 194.471 19.3217 192.743 21.4524 192.743V192.743V192.743C23.5291 192.743 25.2127 194.427 25.2127 196.504V198.838C25.2127 200.941 23.5073 202.647 21.4036 202.647V202.647Z" fill="#DC9036"/>
<rect x="0.454102" y="202.647" width="9.90329" height="20.9499" transform="rotate(-90 0.454102 202.647)" fill="#DC9036"/>
<rect x="17.5339" y="201.39" width="7.67879" height="7.67879" rx="3.8394" transform="rotate(-90 17.5339 201.39)" fill="#E4B67F"/>
<path d="M21.4063 223.28C19.3027 223.28 17.5973 221.574 17.5973 219.47V217.234C17.5973 215.103 19.3245 213.376 21.4551 213.376V213.376V213.376C23.5319 213.376 25.2154 215.06 25.2154 217.137V219.47C25.2154 221.574 23.51 223.28 21.4063 223.28V223.28Z" fill="#DC9036"/>
<rect x="0.45694" y="223.279" width="9.90329" height="20.9499" transform="rotate(-90 0.45694 223.279)" fill="#DC9036"/>
<rect x="17.5366" y="222.023" width="7.67879" height="7.67879" rx="3.8394" transform="rotate(-90 17.5366 222.023)" fill="#E4B67F"/>
<path d="M21.4063 243.91C19.3027 243.91 17.5973 242.205 17.5973 240.101V237.865C17.5973 235.734 19.3245 234.007 21.4551 234.007V234.007V234.007C23.5319 234.007 25.2154 235.691 25.2154 237.767V240.101C25.2154 242.205 23.51 243.91 21.4063 243.91V243.91Z" fill="#DC9036"/>
<rect x="0.45694" y="243.91" width="9.90329" height="20.9499" transform="rotate(-90 0.45694 243.91)" fill="#DC9036"/>
<rect x="17.5366" y="242.654" width="7.67879" height="7.67879" rx="3.8394" transform="rotate(-90 17.5366 242.654)" fill="#E4B67F"/>
<path d="M21.4063 264.543C19.3027 264.543 17.5973 262.838 17.5973 260.734V258.498C17.5973 256.367 19.3245 254.64 21.4551 254.64V254.64V254.64C23.5319 254.64 25.2154 256.323 25.2154 258.4V260.734C25.2154 262.838 23.51 264.543 21.4063 264.543V264.543Z" fill="#DC9036"/>
<rect x="0.45694" y="264.543" width="9.90329" height="20.9499" transform="rotate(-90 0.45694 264.543)" fill="#DC9036"/>
<rect x="17.5366" y="263.287" width="7.67879" height="7.67879" rx="3.8394" transform="rotate(-90 17.5366 263.287)" fill="#E4B67F"/>
</g>
<defs>
<filter id="filter0_i_816_4144" x="0.454102" y="0.454956" width="536.989" height="441.522" filterUnits="userSpaceOnUse" color-interpolation-filters="sRGB">
<feFlood flood-opacity="0" result="BackgroundImageFix"/>
<feBlend mode="normal" in="SourceGraphic" in2="BackgroundImageFix" result="shape"/>
<feColorMatrix in="SourceAlpha" type="matrix" values="0 0 0 0 0 0 0 0 0 0 0 0 0 0 0 0 0 0 127 0" result="hardAlpha"/>
<feOffset/>
<feGaussianBlur stdDeviation="4.12637"/>
<feComposite in2="hardAlpha" operator="arithmetic" k2="-1" k3="1"/>
<feColorMatrix type="matrix" values="0 0 0 0 0 0 0 0 0 0.9 0 0 0 0 1 0 0 0 0.3 0"/>
<feBlend mode="normal" in2="shape" result="effect1_innerShadow_816_4144"/>
</filter>
<filter id="filter1_d_816_4144" x="27.6891" y="40.8943" width="486.912" height="370.548" filterUnits="userSpaceOnUse" color-interpolation-filters="sRGB">
<feFlood flood-opacity="0" result="BackgroundImageFix"/>
<feColorMatrix in="SourceAlpha" type="matrix" values="0 0 0 0 0 0 0 0 0 0 0 0 0 0 0 0 0 0 127 0" result="hardAlpha"/>
<feOffset dy="6.60219"/>
<feGaussianBlur stdDeviation="1.65055"/>
<feComposite in2="hardAlpha" operator="out"/>
<feColorMatrix type="matrix" values="0 0 0 0 0 0 0 0 0 0 0 0 0 0 0 0 0 0 0.25 0"/>
<feBlend mode="normal" in2="BackgroundImageFix" result="effect1_dropShadow_816_4144"/>
<feBlend mode="normal" in="SourceGraphic" in2="effect1_dropShadow_816_4144" result="shape"/>
</filter>
<filter id="filter2_d_816_4144" x="26.8638" y="35.9428" width="488.562" height="370.548" filterUnits="userSpaceOnUse" color-interpolation-filters="sRGB">
<feFlood flood-opacity="0" result="BackgroundImageFix"/>
<feColorMatrix in="SourceAlpha" type="matrix" values="0 0 0 0 0 0 0 0 0 0 0 0 0 0 0 0 0 0 127 0" result="hardAlpha"/>
<feOffset/>
<feGaussianBlur stdDeviation="8.25274"/>
<feComposite in2="hardAlpha" operator="out"/>
<feColorMatrix type="matrix" values="0 0 0 0 0.0588235 0 0 0 0 0.639216 0 0 0 0 0.694118 0 0 0 1 0"/>
<feBlend mode="normal" in2="BackgroundImageFix" result="effect1_dropShadow_816_4144"/>
<feBlend mode="normal" in="SourceGraphic" in2="effect1_dropShadow_816_4144" result="shape"/>
</filter>
</defs>
</svg>
