<svg width="538" height="781" viewBox="0 0 538 781" fill="none" xmlns="http://www.w3.org/2000/svg">
<g filter="url(#filter0_i_816_4089)">
<rect x="0.517578" y="780.805" width="780.709" height="536.989" rx="41.2637" transform="rotate(-90 0.517578 780.805)" fill="#2F3234"/>
<g filter="url(#filter1_d_816_4089)">
<rect x="40.9484" y="718.91" width="656.918" height="460.503" rx="6.60219" transform="rotate(-90 40.9484 718.91)" fill="#0C0C0C"/>
</g>
<g filter="url(#filter2_d_816_4089)">
<rect x="49.3035" y="709.007" width="637.111" height="441.522" rx="6.60219" transform="rotate(-90 49.3035 709.007)" fill="#006771"/>
</g>
<rect x="14.9622" y="59.6362" width="49.7616" height="49.7616" rx="24.8808" transform="rotate(-90 14.9622 59.6362)" fill="black"/>
<rect x="477.26" y="59.6362" width="49.7616" height="49.7616" rx="24.8808" transform="rotate(-90 477.26 59.6362)" fill="black"/>
<rect x="14.9622" y="766.981" width="49.7616" height="49.7616" rx="24.8808" transform="rotate(-90 14.9622 766.981)" fill="black"/>
<rect x="477.26" y="766.981" width="49.7616" height="49.7616" rx="24.8808" transform="rotate(-90 477.26 766.981)" fill="black"/>
<rect x="20.8633" y="54.2695" width="38.5251" height="38.5251" rx="19.2625" transform="rotate(-90 20.8633 54.2695)" fill="#111110"/>
<rect x="483.16" y="54.2695" width="38.5251" height="38.5251" rx="19.2625" transform="rotate(-90 483.16 54.2695)" fill="#111110"/>
<rect x="20.8633" y="761.614" width="38.5251" height="38.5251" rx="19.2625" transform="rotate(-90 20.8633 761.614)" fill="#111110"/>
<rect x="483.16" y="761.614" width="38.5251" height="38.5251" rx="19.2625" transform="rotate(-90 483.16 761.614)" fill="#111110"/>
<path d="M21.5625 144.518C19.4588 144.518 17.7534 142.812 17.7534 140.709V138.472C17.7534 136.342 19.4806 134.615 21.6112 134.615C23.688 134.615 25.3716 136.298 25.3716 138.375V140.709C25.3716 142.812 23.6662 144.518 21.5625 144.518Z" fill="#DC9036"/>
<rect x="0.613098" y="144.518" width="9.90329" height="20.9499" transform="rotate(-90 0.613098 144.518)" fill="#DC9036"/>
<rect x="17.6927" y="143.26" width="7.67879" height="7.67879" rx="3.8394" transform="rotate(-90 17.6927 143.26)" fill="#E4B67F"/>
<path d="M21.5625 165.151C19.4588 165.151 17.7534 163.445 17.7534 161.342V159.105C17.7534 156.975 19.4806 155.247 21.6112 155.247C23.688 155.247 25.3716 156.931 25.3716 159.008V161.342C25.3716 163.445 23.6662 165.151 21.5625 165.151Z" fill="#DC9036"/>
<rect x="0.613098" y="165.151" width="9.90329" height="20.9499" transform="rotate(-90 0.613098 165.151)" fill="#DC9036"/>
<rect x="17.6927" y="163.894" width="7.67879" height="7.67879" rx="3.8394" transform="rotate(-90 17.6927 163.894)" fill="#E4B67F"/>
<path d="M21.5634 185.782C19.4597 185.782 17.7543 184.076 17.7543 181.973V179.736C17.7543 177.606 19.4815 175.878 21.6122 175.878C23.6889 175.878 25.3725 177.562 25.3725 179.639V181.973C25.3725 184.076 23.6671 185.782 21.5634 185.782Z" fill="#DC9036"/>
<rect x="0.614014" y="185.782" width="9.90329" height="20.9499" transform="rotate(-90 0.614014 185.782)" fill="#DC9036"/>
<rect x="17.6937" y="184.523" width="7.67879" height="7.67879" rx="3.8394" transform="rotate(-90 17.6937 184.523)" fill="#E4B67F"/>
<path d="M21.5625 206.414C19.4588 206.414 17.7534 204.709 17.7534 202.605V200.369C17.7534 198.238 19.4806 196.511 21.6112 196.511C23.688 196.511 25.3716 198.195 25.3716 200.271V202.605C25.3716 204.709 23.6662 206.414 21.5625 206.414Z" fill="#DC9036"/>
<rect x="0.613098" y="206.414" width="9.90329" height="20.9499" transform="rotate(-90 0.613098 206.414)" fill="#DC9036"/>
<rect x="17.6927" y="205.158" width="7.67879" height="7.67879" rx="3.8394" transform="rotate(-90 17.6927 205.158)" fill="#E4B67F"/>
<path d="M516.919 444.095C519.023 444.095 520.728 445.8 520.728 447.904V450.141C520.728 452.271 519.001 453.998 516.87 453.998C514.793 453.998 513.11 452.315 513.11 450.238V447.904C513.11 445.8 514.815 444.095 516.919 444.095Z" fill="#DC9036"/>
<rect x="537.868" y="444.095" width="9.90329" height="20.9499" transform="rotate(90 537.868 444.095)" fill="#DC9036"/>
<rect x="520.789" y="445.351" width="7.67879" height="7.67879" rx="3.8394" transform="rotate(90 520.789 445.351)" fill="#E4B67F"/>
<path d="M516.916 423.462C519.02 423.462 520.725 425.168 520.725 427.271V429.508C520.725 431.638 518.998 433.366 516.867 433.366C514.791 433.366 513.107 431.682 513.107 429.605V427.271C513.107 425.168 514.812 423.462 516.916 423.462Z" fill="#DC9036"/>
<rect x="537.866" y="423.462" width="9.90329" height="20.9499" transform="rotate(90 537.866 423.462)" fill="#DC9036"/>
<rect x="520.786" y="424.719" width="7.67879" height="7.67879" rx="3.8394" transform="rotate(90 520.786 424.719)" fill="#E4B67F"/>
<path d="M516.916 402.831C519.02 402.831 520.725 404.537 520.725 406.64V408.877C520.725 411.007 518.998 412.735 516.867 412.735C514.791 412.735 513.107 411.051 513.107 408.974V406.64C513.107 404.537 514.812 402.831 516.916 402.831Z" fill="#DC9036"/>
<rect x="537.866" y="402.831" width="9.90329" height="20.9499" transform="rotate(90 537.866 402.831)" fill="#DC9036"/>
<rect x="520.786" y="404.088" width="7.67879" height="7.67879" rx="3.8394" transform="rotate(90 520.786 404.088)" fill="#E4B67F"/>
<path d="M516.916 382.198C519.02 382.198 520.725 383.904 520.725 386.008V388.244C520.725 390.375 518.998 392.102 516.867 392.102C514.791 392.102 513.107 390.418 513.107 388.341V386.008C513.107 383.904 514.812 382.198 516.916 382.198Z" fill="#DC9036"/>
<rect x="537.866" y="382.198" width="9.90329" height="20.9499" transform="rotate(90 537.866 382.198)" fill="#DC9036"/>
<rect x="520.786" y="383.455" width="7.67879" height="7.67879" rx="3.8394" transform="rotate(90 520.786 383.455)" fill="#E4B67F"/>
</g>
<defs>
<filter id="filter0_i_816_4089" x="0.517578" y="0.0955811" width="537.351" height="780.709" filterUnits="userSpaceOnUse" color-interpolation-filters="sRGB">
<feFlood flood-opacity="0" result="BackgroundImageFix"/>
<feBlend mode="normal" in="SourceGraphic" in2="BackgroundImageFix" result="shape"/>
<feColorMatrix in="SourceAlpha" type="matrix" values="0 0 0 0 0 0 0 0 0 0 0 0 0 0 0 0 0 0 127 0" result="hardAlpha"/>
<feOffset/>
<feGaussianBlur stdDeviation="4.12637"/>
<feComposite in2="hardAlpha" operator="arithmetic" k2="-1" k3="1"/>
<feColorMatrix type="matrix" values="0 0 0 0 0 0 0 0 0 0.9 0 0 0 0 1 0 0 0 0.3 0"/>
<feBlend mode="normal" in2="shape" result="effect1_innerShadow_816_4089"/>
</filter>
<filter id="filter1_d_816_4089" x="37.6473" y="61.9919" width="467.105" height="666.821" filterUnits="userSpaceOnUse" color-interpolation-filters="sRGB">
<feFlood flood-opacity="0" result="BackgroundImageFix"/>
<feColorMatrix in="SourceAlpha" type="matrix" values="0 0 0 0 0 0 0 0 0 0 0 0 0 0 0 0 0 0 127 0" result="hardAlpha"/>
<feOffset dy="6.60219"/>
<feGaussianBlur stdDeviation="1.65055"/>
<feComposite in2="hardAlpha" operator="out"/>
<feColorMatrix type="matrix" values="0 0 0 0 0 0 0 0 0 0 0 0 0 0 0 0 0 0 0.25 0"/>
<feBlend mode="normal" in2="BackgroundImageFix" result="effect1_dropShadow_816_4089"/>
<feBlend mode="normal" in="SourceGraphic" in2="effect1_dropShadow_816_4089" result="shape"/>
</filter>
<filter id="filter2_d_816_4089" x="32.798" y="55.3899" width="474.533" height="670.122" filterUnits="userSpaceOnUse" color-interpolation-filters="sRGB">
<feFlood flood-opacity="0" result="BackgroundImageFix"/>
<feColorMatrix in="SourceAlpha" type="matrix" values="0 0 0 0 0 0 0 0 0 0 0 0 0 0 0 0 0 0 127 0" result="hardAlpha"/>
<feOffset/>
<feGaussianBlur stdDeviation="8.25274"/>
<feComposite in2="hardAlpha" operator="out"/>
<feColorMatrix type="matrix" values="0 0 0 0 0.0588235 0 0 0 0 0.639216 0 0 0 0 0.694118 0 0 0 0.7 0"/>
<feBlend mode="normal" in2="BackgroundImageFix" result="effect1_dropShadow_816_4089"/>
<feBlend mode="normal" in="SourceGraphic" in2="effect1_dropShadow_816_4089" result="shape"/>
</filter>
</defs>
</svg>
