<svg width="187" height="197" viewBox="0 0 187 197" fill="none" xmlns="http://www.w3.org/2000/svg">
<rect x="41.8278" y="0.207031" width="4.90827" height="196.415" rx="2.45414" fill="#212A32"/>
<rect x="41.8278" y="0.207031" width="4.90827" height="196.415" rx="2.45414" fill="url(#paint0_linear_816_4417)" fill-opacity="0.3"/>
<rect x="51.6449" y="0.207031" width="4.90827" height="196.415" rx="2.45414" fill="#212A32"/>
<rect x="51.6449" y="0.207031" width="4.90827" height="196.415" rx="2.45414" fill="url(#paint1_linear_816_4417)" fill-opacity="0.3"/>
<rect x="61.461" y="0.207031" width="4.90827" height="196.415" rx="2.45414" fill="#212A32"/>
<rect x="61.461" y="0.207031" width="4.90827" height="196.415" rx="2.45414" fill="url(#paint2_linear_816_4417)" fill-opacity="0.3"/>
<rect x="71.2781" y="0.207031" width="4.90827" height="196.415" rx="2.45414" fill="#212A32"/>
<rect x="71.2781" y="0.207031" width="4.90827" height="196.415" rx="2.45414" fill="url(#paint3_linear_816_4417)" fill-opacity="0.3"/>
<rect x="81.0942" y="0.207031" width="4.90827" height="196.415" rx="2.45414" fill="#212A32"/>
<rect x="81.0942" y="0.207031" width="4.90827" height="196.415" rx="2.45414" fill="url(#paint4_linear_816_4417)" fill-opacity="0.3"/>
<rect x="90.9113" y="0.207031" width="4.90827" height="196.415" rx="2.45414" fill="#212A32"/>
<rect x="90.9113" y="0.207031" width="4.90827" height="196.415" rx="2.45414" fill="url(#paint5_linear_816_4417)" fill-opacity="0.3"/>
<rect x="100.726" y="0.207031" width="4.90827" height="196.415" rx="2.45414" fill="#212A32"/>
<rect x="100.726" y="0.207031" width="4.90827" height="196.415" rx="2.45414" fill="url(#paint6_linear_816_4417)" fill-opacity="0.3"/>
<rect x="110.544" y="0.207031" width="4.90827" height="196.415" rx="2.45414" fill="#212A32"/>
<rect x="110.544" y="0.207031" width="4.90827" height="196.415" rx="2.45414" fill="url(#paint7_linear_816_4417)" fill-opacity="0.3"/>
<rect x="120.361" y="0.207031" width="4.90827" height="196.415" rx="2.45414" fill="#212A32"/>
<rect x="120.361" y="0.207031" width="4.90827" height="196.415" rx="2.45414" fill="url(#paint8_linear_816_4417)" fill-opacity="0.3"/>
<rect x="130.177" y="0.207031" width="4.90827" height="196.415" rx="2.45414" fill="#212A32"/>
<rect x="130.177" y="0.207031" width="4.90827" height="196.415" rx="2.45414" fill="url(#paint9_linear_816_4417)" fill-opacity="0.3"/>
<rect x="139.994" y="0.207031" width="4.90827" height="196.415" rx="2.45414" fill="#212A32"/>
<rect x="139.994" y="0.207031" width="4.90827" height="196.415" rx="2.45414" fill="url(#paint10_linear_816_4417)" fill-opacity="0.3"/>
<rect x="186.622" y="44.1448" width="5.16882" height="186.514" rx="2.58441" transform="rotate(90 186.622 44.1448)" fill="#212A32"/>
<rect x="186.622" y="54.4819" width="5.16882" height="186.514" rx="2.58441" transform="rotate(90 186.622 54.4819)" fill="#212A32"/>
<rect x="186.622" y="64.8193" width="5.16882" height="186.514" rx="2.58441" transform="rotate(90 186.622 64.8193)" fill="#212A32"/>
<rect x="186.622" y="75.1545" width="5.16882" height="186.514" rx="2.58441" transform="rotate(90 186.622 75.1545)" fill="#212A32"/>
<rect x="186.622" y="85.4976" width="5.16882" height="186.514" rx="2.58441" transform="rotate(90 186.622 85.4976)" fill="#212A32"/>
<rect x="186.622" y="95.8347" width="5.16882" height="186.514" rx="2.58441" transform="rotate(90 186.622 95.8347)" fill="#212A32"/>
<rect x="186.622" y="106.17" width="5.16882" height="186.514" rx="2.58441" transform="rotate(90 186.622 106.17)" fill="#212A32"/>
<rect x="186.622" y="116.507" width="5.16882" height="186.514" rx="2.58441" transform="rotate(90 186.622 116.507)" fill="#212A32"/>
<rect x="186.622" y="126.845" width="5.16882" height="186.514" rx="2.58441" transform="rotate(90 186.622 126.845)" fill="#212A32"/>
<rect x="186.622" y="137.182" width="5.16882" height="186.514" rx="2.58441" transform="rotate(90 186.622 137.182)" fill="#212A32"/>
<rect x="186.622" y="147.523" width="5.16882" height="186.514" rx="2.58441" transform="rotate(90 186.622 147.523)" fill="#212A32"/>
<g filter="url(#filter0_d_816_4417)">
<rect x="14.8333" y="15.7163" width="157.065" height="165.402" rx="4.95164" fill="#0F1417"/>
<rect x="15.2459" y="16.1289" width="156.239" height="164.577" rx="4.53901" stroke="url(#paint11_linear_816_4417)" stroke-opacity="0.6" stroke-width="0.825274"/>
<rect x="15.2459" y="16.1289" width="156.239" height="164.577" rx="4.53901" stroke="url(#paint12_linear_816_4417)" stroke-opacity="0.35" stroke-width="0.825274" style="mix-blend-mode:screen"/>
</g>
<rect x="63.9149" y="67.4043" width="58.8993" height="62.0259" rx="0.825274" fill="#050809"/>
<rect x="63.5022" y="66.9917" width="59.7245" height="62.8511" rx="1.23791" stroke="url(#paint13_linear_816_4417)" stroke-opacity="0.6" stroke-width="0.825274"/>
<rect width="9.81654" height="10.3376" rx="0.825274" transform="matrix(-1 0 0 1 44.2826 36.3906)" fill="#040507"/>
<rect width="9.81654" height="10.3376" rx="0.825274" transform="matrix(-1 0 0 1 152.264 36.3906)" fill="#040507"/>
<rect width="9.81654" height="10.3376" rx="0.825274" transform="matrix(-1 0 0 1 44.2826 150.104)" fill="#040507"/>
<rect width="9.81654" height="10.3376" rx="0.825274" transform="matrix(-1 0 0 1 152.264 150.104)" fill="#040507"/>
<defs>
<filter id="filter0_d_816_4417" x="9.88167" y="13.2405" width="166.968" height="175.306" filterUnits="userSpaceOnUse" color-interpolation-filters="sRGB">
<feFlood flood-opacity="0" result="BackgroundImageFix"/>
<feColorMatrix in="SourceAlpha" type="matrix" values="0 0 0 0 0 0 0 0 0 0 0 0 0 0 0 0 0 0 127 0" result="hardAlpha"/>
<feOffset dy="2.47582"/>
<feGaussianBlur stdDeviation="2.47582"/>
<feColorMatrix type="matrix" values="0 0 0 0 0 0 0 0 0 0 0 0 0 0 0 0 0 0 0.8 0"/>
<feBlend mode="normal" in2="BackgroundImageFix" result="effect1_dropShadow_816_4417"/>
<feBlend mode="normal" in="SourceGraphic" in2="effect1_dropShadow_816_4417" result="shape"/>
</filter>
<linearGradient id="paint0_linear_816_4417" x1="44.282" y1="0.207031" x2="44.282" y2="196.622" gradientUnits="userSpaceOnUse">
<stop stop-color="#0FA3B1"/>
<stop offset="0.0625" stop-color="#E80A89" stop-opacity="0"/>
</linearGradient>
<linearGradient id="paint1_linear_816_4417" x1="54.099" y1="0.207031" x2="54.099" y2="196.622" gradientUnits="userSpaceOnUse">
<stop stop-color="#0FA3B1"/>
<stop offset="0.0625" stop-color="#E80A89" stop-opacity="0"/>
</linearGradient>
<linearGradient id="paint2_linear_816_4417" x1="63.9151" y1="0.207031" x2="63.9151" y2="196.622" gradientUnits="userSpaceOnUse">
<stop stop-color="#0FA3B1"/>
<stop offset="0.0625" stop-color="#E80A89" stop-opacity="0"/>
</linearGradient>
<linearGradient id="paint3_linear_816_4417" x1="73.7322" y1="0.207031" x2="73.7322" y2="196.622" gradientUnits="userSpaceOnUse">
<stop stop-color="#0FA3B1"/>
<stop offset="0.0625" stop-color="#E80A89" stop-opacity="0"/>
</linearGradient>
<linearGradient id="paint4_linear_816_4417" x1="83.5483" y1="0.207031" x2="83.5483" y2="196.622" gradientUnits="userSpaceOnUse">
<stop stop-color="#0FA3B1"/>
<stop offset="0.0625" stop-color="#E80A89" stop-opacity="0"/>
</linearGradient>
<linearGradient id="paint5_linear_816_4417" x1="93.3654" y1="0.207031" x2="93.3654" y2="196.622" gradientUnits="userSpaceOnUse">
<stop stop-color="#0FA3B1"/>
<stop offset="0.0625" stop-color="#E80A89" stop-opacity="0"/>
</linearGradient>
<linearGradient id="paint6_linear_816_4417" x1="103.181" y1="0.207031" x2="103.181" y2="196.622" gradientUnits="userSpaceOnUse">
<stop stop-color="#0FA3B1"/>
<stop offset="0.0625" stop-color="#E80A89" stop-opacity="0"/>
</linearGradient>
<linearGradient id="paint7_linear_816_4417" x1="112.998" y1="0.207031" x2="112.998" y2="196.622" gradientUnits="userSpaceOnUse">
<stop stop-color="#0FA3B1"/>
<stop offset="0.0625" stop-color="#E80A89" stop-opacity="0"/>
</linearGradient>
<linearGradient id="paint8_linear_816_4417" x1="122.815" y1="0.207031" x2="122.815" y2="196.622" gradientUnits="userSpaceOnUse">
<stop stop-color="#0FA3B1"/>
<stop offset="0.0625" stop-color="#E80A89" stop-opacity="0"/>
</linearGradient>
<linearGradient id="paint9_linear_816_4417" x1="132.631" y1="0.207031" x2="132.631" y2="196.622" gradientUnits="userSpaceOnUse">
<stop stop-color="#0FA3B1"/>
<stop offset="0.0625" stop-color="#E80A89" stop-opacity="0"/>
</linearGradient>
<linearGradient id="paint10_linear_816_4417" x1="142.448" y1="0.207031" x2="142.448" y2="196.622" gradientUnits="userSpaceOnUse">
<stop stop-color="#0FA3B1"/>
<stop offset="0.0625" stop-color="#E80A89" stop-opacity="0"/>
</linearGradient>
<linearGradient id="paint11_linear_816_4417" x1="93.3657" y1="15.7163" x2="93.3657" y2="181.119" gradientUnits="userSpaceOnUse">
<stop stop-color="#2C333A"/>
<stop offset="1" stop-color="#262C32" stop-opacity="0"/>
</linearGradient>
<linearGradient id="paint12_linear_816_4417" x1="93.3657" y1="15.7163" x2="93.3657" y2="51.8981" gradientUnits="userSpaceOnUse">
<stop stop-color="#0FA3B1"/>
<stop offset="1" stop-color="#E80A89" stop-opacity="0"/>
</linearGradient>
<linearGradient id="paint13_linear_816_4417" x1="93.3645" y1="67.4043" x2="93.3645" y2="129.43" gradientUnits="userSpaceOnUse">
<stop stop-color="#262C32" stop-opacity="0"/>
<stop offset="1" stop-color="#2C333A"/>
</linearGradient>
</defs>
</svg>
