<svg width="26" height="26" viewBox="0 0 26 26" fill="none" xmlns="http://www.w3.org/2000/svg">
<path d="M21.8125 4.13757C20.6663 2.9802 19.3013 2.06253 17.7969 1.43802C16.2925 0.813516 14.6789 0.494671 13.05 0.500067C6.225 0.500067 0.6625 6.06257 0.6625 12.8876C0.6625 15.0751 1.2375 17.2001 2.3125 19.0751L0.5625 25.5001L7.125 23.7751C8.9375 24.7626 10.975 25.2876 13.05 25.2876C19.875 25.2876 25.4375 19.7251 25.4375 12.9001C25.4375 9.58757 24.15 6.47507 21.8125 4.13757ZM13.05 23.1876C11.2 23.1876 9.3875 22.6876 7.8 21.7501L7.425 21.5251L3.525 22.5501L4.5625 18.7501L4.3125 18.3626C3.28443 16.7214 2.73866 14.8242 2.7375 12.8876C2.7375 7.21257 7.3625 2.58757 13.0375 2.58757C15.7875 2.58757 18.375 3.66257 20.3125 5.61257C21.272 6.5674 22.0324 7.70325 22.5495 8.95423C23.0667 10.2052 23.3302 11.5464 23.325 12.9001C23.35 18.5751 18.725 23.1876 13.05 23.1876ZM18.7 15.4876C18.3875 15.3376 16.8625 14.5876 16.5875 14.4751C16.3 14.3751 16.1 14.3251 15.8875 14.6251C15.675 14.9376 15.0875 15.6376 14.9125 15.8376C14.7375 16.0501 14.55 16.0751 14.2375 15.9126C13.925 15.7626 12.925 15.4251 11.75 14.3751C10.825 13.5501 10.2125 12.5376 10.025 12.2251C9.85 11.9126 10 11.7501 10.1625 11.5876C10.3 11.4501 10.475 11.2251 10.625 11.0501C10.775 10.8751 10.8375 10.7376 10.9375 10.5376C11.0375 10.3251 10.9875 10.1501 10.9125 10.0001C10.8375 9.85007 10.2125 8.32507 9.9625 7.70007C9.7125 7.10007 9.45 7.17507 9.2625 7.16257H8.6625C8.45 7.16257 8.125 7.23757 7.8375 7.55007C7.5625 7.86257 6.7625 8.61257 6.7625 10.1376C6.7625 11.6626 7.875 13.1376 8.025 13.3376C8.175 13.5501 10.2125 16.6751 13.3125 18.0126C14.05 18.3376 14.625 18.5251 15.075 18.6626C15.8125 18.9001 16.4875 18.8626 17.025 18.7876C17.625 18.7001 18.8625 18.0376 19.1125 17.3126C19.375 16.5876 19.375 15.9751 19.2875 15.8376C19.2 15.7001 19.0125 15.6376 18.7 15.4876Z" fill="#00ADEF"/>
</svg>
